<mxfile host="app.diagrams.net" agent="Mozilla/5.0 (Windows NT 10.0; Win64; x64) AppleWebKit/537.36 (KHTML, like Gecko) Chrome/129.0.0.0 Safari/537.36" version="24.7.7">
  <diagram name="Page-1" id="R3vbx9on1YrpLQ6dvTh8">
    <mxGraphModel dx="1050" dy="1680" grid="1" gridSize="19" guides="1" tooltips="1" connect="1" arrows="1" fold="1" page="1" pageScale="1" pageWidth="850" pageHeight="1100" math="0" shadow="0">
      <root>
        <mxCell id="0" />
        <mxCell id="1" parent="0" />
        <mxCell id="6t2x3b4xjw4AcIhOX0Pv-4" value="" style="edgeStyle=orthogonalEdgeStyle;rounded=0;orthogonalLoop=1;jettySize=auto;html=1;fontSize=14;" edge="1" parent="1" source="6t2x3b4xjw4AcIhOX0Pv-2" target="6t2x3b4xjw4AcIhOX0Pv-3">
          <mxGeometry relative="1" as="geometry" />
        </mxCell>
        <mxCell id="6t2x3b4xjw4AcIhOX0Pv-2" value="START" style="strokeWidth=2;html=1;shape=mxgraph.flowchart.terminator;whiteSpace=wrap;fontSize=14;labelBackgroundColor=none;" vertex="1" parent="1">
          <mxGeometry x="361" y="-1064" width="95" height="38" as="geometry" />
        </mxCell>
        <mxCell id="6t2x3b4xjw4AcIhOX0Pv-6" value="" style="edgeStyle=orthogonalEdgeStyle;rounded=0;orthogonalLoop=1;jettySize=auto;html=1;fontSize=14;" edge="1" parent="1" source="6t2x3b4xjw4AcIhOX0Pv-3" target="6t2x3b4xjw4AcIhOX0Pv-5">
          <mxGeometry relative="1" as="geometry" />
        </mxCell>
        <mxCell id="6t2x3b4xjw4AcIhOX0Pv-3" value="bool re_run = true&lt;div style=&quot;line-height: 100%; font-size: 14px;&quot;&gt;int pattern, style&lt;/div&gt;" style="verticalLabelPosition=middle;verticalAlign=middle;html=1;shape=hexagon;perimeter=hexagonPerimeter2;arcSize=6;size=0.19;align=center;labelPosition=center;fontSize=14;" vertex="1" parent="1">
          <mxGeometry x="339" y="-988" width="139" height="76" as="geometry" />
        </mxCell>
        <mxCell id="6t2x3b4xjw4AcIhOX0Pv-8" value="" style="edgeStyle=orthogonalEdgeStyle;rounded=0;orthogonalLoop=1;jettySize=auto;html=1;fontSize=14;" edge="1" parent="1" source="6t2x3b4xjw4AcIhOX0Pv-5" target="6t2x3b4xjw4AcIhOX0Pv-7">
          <mxGeometry relative="1" as="geometry" />
        </mxCell>
        <mxCell id="6t2x3b4xjw4AcIhOX0Pv-38" value="&lt;font style=&quot;font-size: 13px;&quot;&gt;TRUE&lt;/font&gt;" style="edgeLabel;html=1;align=center;verticalAlign=middle;resizable=0;points=[];" vertex="1" connectable="0" parent="6t2x3b4xjw4AcIhOX0Pv-8">
          <mxGeometry x="-0.3905" y="2" relative="1" as="geometry">
            <mxPoint as="offset" />
          </mxGeometry>
        </mxCell>
        <mxCell id="6t2x3b4xjw4AcIhOX0Pv-5" value="re_run IS&lt;div&gt;TRUE?&lt;/div&gt;" style="strokeWidth=2;html=1;shape=mxgraph.flowchart.decision;whiteSpace=wrap;fontSize=14;" vertex="1" parent="1">
          <mxGeometry x="350" y="-874" width="117" height="114" as="geometry" />
        </mxCell>
        <mxCell id="6t2x3b4xjw4AcIhOX0Pv-10" value="" style="edgeStyle=orthogonalEdgeStyle;rounded=0;orthogonalLoop=1;jettySize=auto;html=1;fontSize=14;" edge="1" parent="1" source="6t2x3b4xjw4AcIhOX0Pv-7" target="6t2x3b4xjw4AcIhOX0Pv-9">
          <mxGeometry relative="1" as="geometry" />
        </mxCell>
        <mxCell id="6t2x3b4xjw4AcIhOX0Pv-7" value="CALL input::pattern()&lt;div style=&quot;font-size: 14px;&quot;&gt;pattern = input::pattern()&lt;/div&gt;" style="rounded=1;whiteSpace=wrap;html=1;absoluteArcSize=1;arcSize=14;strokeWidth=2;fontSize=14;" vertex="1" parent="1">
          <mxGeometry x="323" y="-722" width="171" height="76" as="geometry" />
        </mxCell>
        <mxCell id="6t2x3b4xjw4AcIhOX0Pv-12" value="" style="edgeStyle=orthogonalEdgeStyle;rounded=0;orthogonalLoop=1;jettySize=auto;html=1;fontSize=14;" edge="1" parent="1" source="6t2x3b4xjw4AcIhOX0Pv-9" target="6t2x3b4xjw4AcIhOX0Pv-11">
          <mxGeometry relative="1" as="geometry" />
        </mxCell>
        <mxCell id="6t2x3b4xjw4AcIhOX0Pv-37" value="&lt;font style=&quot;font-size: 13px;&quot;&gt;TRUE&lt;/font&gt;" style="edgeLabel;html=1;align=center;verticalAlign=middle;resizable=0;points=[];" vertex="1" connectable="0" parent="6t2x3b4xjw4AcIhOX0Pv-12">
          <mxGeometry x="-0.3581" relative="1" as="geometry">
            <mxPoint as="offset" />
          </mxGeometry>
        </mxCell>
        <mxCell id="6t2x3b4xjw4AcIhOX0Pv-9" value="pattern != 99?" style="strokeWidth=2;html=1;shape=mxgraph.flowchart.decision;whiteSpace=wrap;fontSize=14;" vertex="1" parent="1">
          <mxGeometry x="350" y="-607" width="117" height="114" as="geometry" />
        </mxCell>
        <mxCell id="6t2x3b4xjw4AcIhOX0Pv-16" value="" style="edgeStyle=orthogonalEdgeStyle;rounded=0;orthogonalLoop=1;jettySize=auto;html=1;fontSize=14;" edge="1" parent="1" source="6t2x3b4xjw4AcIhOX0Pv-11" target="6t2x3b4xjw4AcIhOX0Pv-15">
          <mxGeometry relative="1" as="geometry" />
        </mxCell>
        <mxCell id="6t2x3b4xjw4AcIhOX0Pv-11" value="CALL input::style(pattern)&lt;div style=&quot;font-size: 14px;&quot;&gt;pattern = input::style(pattern)&lt;/div&gt;" style="rounded=1;whiteSpace=wrap;html=1;absoluteArcSize=1;arcSize=14;strokeWidth=2;fontSize=14;" vertex="1" parent="1">
          <mxGeometry x="323" y="-456" width="171" height="76" as="geometry" />
        </mxCell>
        <mxCell id="6t2x3b4xjw4AcIhOX0Pv-18" value="" style="edgeStyle=orthogonalEdgeStyle;rounded=0;orthogonalLoop=1;jettySize=auto;html=1;fontSize=14;" edge="1" parent="1" source="6t2x3b4xjw4AcIhOX0Pv-15" target="6t2x3b4xjw4AcIhOX0Pv-17">
          <mxGeometry relative="1" as="geometry" />
        </mxCell>
        <mxCell id="6t2x3b4xjw4AcIhOX0Pv-39" value="&lt;font style=&quot;font-size: 13px;&quot;&gt;TRUE&lt;/font&gt;" style="edgeLabel;html=1;align=center;verticalAlign=middle;resizable=0;points=[];" vertex="1" connectable="0" parent="6t2x3b4xjw4AcIhOX0Pv-18">
          <mxGeometry x="-0.3048" y="1" relative="1" as="geometry">
            <mxPoint as="offset" />
          </mxGeometry>
        </mxCell>
        <mxCell id="6t2x3b4xjw4AcIhOX0Pv-29" style="edgeStyle=orthogonalEdgeStyle;rounded=0;orthogonalLoop=1;jettySize=auto;html=1;exitX=0;exitY=0.5;exitDx=0;exitDy=0;exitPerimeter=0;" edge="1" parent="1" source="6t2x3b4xjw4AcIhOX0Pv-15">
          <mxGeometry relative="1" as="geometry">
            <mxPoint x="133" y="-627" as="targetPoint" />
          </mxGeometry>
        </mxCell>
        <mxCell id="6t2x3b4xjw4AcIhOX0Pv-35" value="&lt;font style=&quot;font-size: 14px;&quot;&gt;FALSE&lt;/font&gt;" style="edgeLabel;html=1;align=center;verticalAlign=middle;resizable=0;points=[];" vertex="1" connectable="0" parent="6t2x3b4xjw4AcIhOX0Pv-29">
          <mxGeometry x="-0.6849" y="-1" relative="1" as="geometry">
            <mxPoint as="offset" />
          </mxGeometry>
        </mxCell>
        <mxCell id="6t2x3b4xjw4AcIhOX0Pv-15" value="style != 99?" style="strokeWidth=2;html=1;shape=mxgraph.flowchart.decision;whiteSpace=wrap;fontSize=14;" vertex="1" parent="1">
          <mxGeometry x="350" y="-342" width="117" height="114" as="geometry" />
        </mxCell>
        <mxCell id="6t2x3b4xjw4AcIhOX0Pv-20" value="" style="edgeStyle=orthogonalEdgeStyle;rounded=0;orthogonalLoop=1;jettySize=auto;html=1;fontSize=14;" edge="1" parent="1" source="6t2x3b4xjw4AcIhOX0Pv-17" target="6t2x3b4xjw4AcIhOX0Pv-19">
          <mxGeometry relative="1" as="geometry" />
        </mxCell>
        <mxCell id="6t2x3b4xjw4AcIhOX0Pv-17" value="CALL gate(pattern, style)&lt;div style=&quot;font-size: 14px;&quot;&gt;re_run = gate(pattern, style)&lt;/div&gt;" style="rounded=1;whiteSpace=wrap;html=1;absoluteArcSize=1;arcSize=14;strokeWidth=2;fontSize=14;" vertex="1" parent="1">
          <mxGeometry x="323" y="-190" width="171" height="76" as="geometry" />
        </mxCell>
        <mxCell id="6t2x3b4xjw4AcIhOX0Pv-25" value="" style="edgeStyle=orthogonalEdgeStyle;rounded=0;orthogonalLoop=1;jettySize=auto;html=1;fontSize=14;" edge="1" parent="1" source="6t2x3b4xjw4AcIhOX0Pv-19" target="6t2x3b4xjw4AcIhOX0Pv-24">
          <mxGeometry relative="1" as="geometry" />
        </mxCell>
        <mxCell id="6t2x3b4xjw4AcIhOX0Pv-19" value="" style="shape=waypoint;sketch=0;size=6;pointerEvents=1;points=[];fillColor=default;resizable=0;rotatable=0;perimeter=centerPerimeter;snapToPoint=1;rounded=1;arcSize=14;strokeWidth=2;fontSize=14;" vertex="1" parent="1">
          <mxGeometry x="649.5" y="-827" width="20" height="20" as="geometry" />
        </mxCell>
        <mxCell id="6t2x3b4xjw4AcIhOX0Pv-21" value="" style="shape=waypoint;sketch=0;size=6;pointerEvents=1;points=[];fillColor=default;resizable=0;rotatable=0;perimeter=centerPerimeter;snapToPoint=1;rounded=1;arcSize=14;strokeWidth=2;fontSize=14;" vertex="1" parent="1">
          <mxGeometry x="458" y="-827" width="20" height="20" as="geometry" />
        </mxCell>
        <mxCell id="6t2x3b4xjw4AcIhOX0Pv-24" value="" style="shape=waypoint;sketch=0;size=6;pointerEvents=1;points=[];fillColor=default;resizable=0;rotatable=0;perimeter=centerPerimeter;snapToPoint=1;rounded=1;arcSize=14;strokeWidth=2;fontSize=14;" vertex="1" parent="1">
          <mxGeometry x="458" y="-827" width="20" height="20" as="geometry" />
        </mxCell>
        <mxCell id="6t2x3b4xjw4AcIhOX0Pv-26" value="END" style="strokeWidth=2;html=1;shape=mxgraph.flowchart.terminator;whiteSpace=wrap;fontSize=14;labelBackgroundColor=none;" vertex="1" parent="1">
          <mxGeometry x="76" y="-665" width="95" height="38" as="geometry" />
        </mxCell>
        <mxCell id="6t2x3b4xjw4AcIhOX0Pv-27" style="edgeStyle=orthogonalEdgeStyle;rounded=0;orthogonalLoop=1;jettySize=auto;html=1;exitX=0;exitY=0.5;exitDx=0;exitDy=0;exitPerimeter=0;entryX=0.6;entryY=0;entryDx=0;entryDy=0;entryPerimeter=0;" edge="1" parent="1" source="6t2x3b4xjw4AcIhOX0Pv-5" target="6t2x3b4xjw4AcIhOX0Pv-26">
          <mxGeometry relative="1" as="geometry" />
        </mxCell>
        <mxCell id="6t2x3b4xjw4AcIhOX0Pv-30" value="&lt;font style=&quot;font-size: 14px;&quot;&gt;FALSE&lt;/font&gt;" style="edgeLabel;html=1;align=center;verticalAlign=middle;resizable=0;points=[];" vertex="1" connectable="0" parent="6t2x3b4xjw4AcIhOX0Pv-27">
          <mxGeometry x="-0.5068" y="-1" relative="1" as="geometry">
            <mxPoint as="offset" />
          </mxGeometry>
        </mxCell>
        <mxCell id="6t2x3b4xjw4AcIhOX0Pv-28" style="edgeStyle=orthogonalEdgeStyle;rounded=0;orthogonalLoop=1;jettySize=auto;html=1;exitX=0;exitY=0.5;exitDx=0;exitDy=0;exitPerimeter=0;entryX=0.594;entryY=1.058;entryDx=0;entryDy=0;entryPerimeter=0;" edge="1" parent="1" source="6t2x3b4xjw4AcIhOX0Pv-9" target="6t2x3b4xjw4AcIhOX0Pv-26">
          <mxGeometry relative="1" as="geometry" />
        </mxCell>
        <mxCell id="6t2x3b4xjw4AcIhOX0Pv-34" value="&lt;font style=&quot;font-size: 14px;&quot;&gt;FALSE&lt;/font&gt;" style="edgeLabel;html=1;align=center;verticalAlign=middle;resizable=0;points=[];" vertex="1" connectable="0" parent="6t2x3b4xjw4AcIhOX0Pv-28">
          <mxGeometry x="-0.3776" y="-1" relative="1" as="geometry">
            <mxPoint as="offset" />
          </mxGeometry>
        </mxCell>
        <mxCell id="6t2x3b4xjw4AcIhOX0Pv-40" value="&lt;font style=&quot;font-size: 23px;&quot;&gt;main FUNCTION&lt;/font&gt;" style="text;html=1;align=center;verticalAlign=middle;resizable=0;points=[];autosize=1;strokeColor=none;fillColor=none;" vertex="1" parent="1">
          <mxGeometry x="76" y="-1064" width="209" height="38" as="geometry" />
        </mxCell>
      </root>
    </mxGraphModel>
  </diagram>
</mxfile>
